<svg width="512" height="512" viewBox="0 0 512 512" xmlns="http://www.w3.org/2000/svg">
  <defs>
    <linearGradient id="bgGradient" x1="0%" y1="0%" x2="100%" y2="100%">
      <stop offset="0%" style="stop-color:#6366f1"/>
      <stop offset="100%" style="stop-color:#8b5cf6"/>
    </linearGradient>
    <linearGradient id="sparkGradient" x1="0%" y1="0%" x2="100%" y2="100%">
      <stop offset="0%" style="stop-color:#fbbf24"/>
      <stop offset="100%" style="stop-color:#f59e0b"/>
    </linearGradient>
  </defs>

  <!-- Background circle -->
  <circle cx="256" cy="256" r="240" fill="url(#bgGradient)"/>

  <!-- Brain/AI symbol - stylized neural network -->
  <g fill="none" stroke="#ffffff" stroke-width="20" stroke-linecap="round" stroke-linejoin="round">
    <!-- Central node -->
    <circle cx="256" cy="256" r="35" fill="#ffffff"/>

    <!-- Top nodes -->
    <circle cx="256" cy="140" r="25" fill="#ffffff"/>
    <line x1="256" y1="221" x2="256" y2="165"/>

    <!-- Bottom nodes -->
    <circle cx="256" cy="372" r="25" fill="#ffffff"/>
    <line x1="256" y1="291" x2="256" y2="347"/>

    <!-- Left nodes -->
    <circle cx="150" cy="200" r="25" fill="#ffffff"/>
    <line x1="225" y1="235" x2="175" y2="210"/>

    <circle cx="150" cy="312" r="25" fill="#ffffff"/>
    <line x1="225" y1="277" x2="175" y2="302"/>

    <!-- Right nodes -->
    <circle cx="362" cy="200" r="25" fill="#ffffff"/>
    <line x1="287" y1="235" x2="337" y2="210"/>

    <circle cx="362" cy="312" r="25" fill="#ffffff"/>
    <line x1="287" y1="277" x2="337" y2="302"/>

    <!-- Cross connections -->
    <line x1="175" y1="200" x2="231" y2="140" stroke-opacity="0.5"/>
    <line x1="337" y1="200" x2="281" y2="140" stroke-opacity="0.5"/>
    <line x1="175" y1="312" x2="231" y2="372" stroke-opacity="0.5"/>
    <line x1="337" y1="312" x2="281" y2="372" stroke-opacity="0.5"/>
  </g>

  <!-- Sparkle accent -->
  <g fill="url(#sparkGradient)">
    <path d="M400 100 L408 120 L428 128 L408 136 L400 156 L392 136 L372 128 L392 120 Z"/>
  </g>
</svg>
